<svg width="55" height="36" viewBox="0 0 55 36" fill="none" xmlns="http://www.w3.org/2000/svg">
<g id="Graphic_Elements">
<g id="Group">
<path id="Vector" d="M23.6759 10.0511C22.7637 9.21469 22.2057 8.0536 22.2057 6.78427C22.2057 4.22594 24.4701 2.14975 27.2604 2.14975C29.0204 2.14975 30.5766 2.97629 31.4781 4.23577C31.7142 4.45225 51.8258 27.1821 52.019 27.4477C52.9312 28.2841 53.4893 29.4452 53.4893 30.7145C53.4893 33.2729 51.2248 35.3491 48.4345 35.3491C46.6745 35.3491 45.1183 34.5225 44.2169 33.263C43.97 33.0367 23.8584 10.3069 23.6759 10.0511Z" fill="#FFD43F"/>
<path id="Vector_2" d="M12.032 20.8354C11.1198 19.9991 10.551 18.838 10.551 17.5588C10.551 15.0005 12.8155 12.9243 15.6058 12.9243C17.3658 12.9243 18.922 13.7508 19.8234 15.0103C20.0703 15.2366 30.6305 27.1722 30.8129 27.4379C31.7252 28.2743 32.2939 29.4354 32.2939 30.7146C32.2939 33.2729 30.0295 35.3491 27.2392 35.3491C25.4792 35.3491 23.923 34.5225 23.0215 33.263C22.7854 33.0367 12.2252 21.1011 12.032 20.8354Z" fill="white"/>
<g id="Group_2">
<path id="Vector_3" d="M1.15332 7.83129C0.516269 5.33929 2.20317 2.84562 4.92113 2.26153C7.63909 1.67743 10.3589 3.22409 10.9959 5.7161C11.633 8.2081 9.94607 10.7018 7.22812 11.2859C4.51016 11.87 1.79038 10.3233 1.15332 7.83129Z" fill="white"/>
</g>
<g id="Group_3">
<path id="Vector_4" d="M46.5707 11.0854C43.9761 10.1407 42.7081 7.44637 43.7385 5.0675C44.7689 2.68863 47.7076 1.52604 50.3021 2.47078C52.8967 3.41552 54.1647 6.10984 53.1343 8.48871C52.1039 10.8676 49.1653 12.0302 46.5707 11.0854Z" fill="white"/>
</g>
</g>
</g>
</svg>
