<svg width="106" height="79" viewBox="0 0 106 79" fill="none" xmlns="http://www.w3.org/2000/svg">
<path id="Intersect" fill-rule="evenodd" clip-rule="evenodd" d="M15.3853 78.8983L40.0505 54.3514L5.30318 19.6041L1.41409 15.715L-0.000123321 14.3008L1.41409 12.8866L9.19227 5.10838L10.6065 3.69417L12.0207 5.10838L15.9098 8.99747L50.6827 43.7703L89.348 5.29053L93.2464 1.41081L94.6641 -9.25026e-07L96.0749 1.41761L103.834 9.21447L105.245 10.6321L103.828 12.0429L99.9291 15.9226L61.2893 54.377L85.8106 78.8983L80.1538 78.8983L57.0432 55.7878L55.6256 54.3702L57.0466 52.956L97.1075 13.0874L99.5883 10.6185L94.6505 5.65684L92.1696 8.12575L52.0901 48.013L50.6759 49.4204L49.265 48.0096L13.0814 11.8259L10.6065 9.35102L5.65673 14.3008L8.13161 16.7756L44.2966 52.9406L45.7142 54.3582L44.2932 55.7725L21.0558 78.8983L15.3853 78.8983ZM30.9792 78.8983L49.2498 60.7154L50.664 59.308L52.0748 60.7188L70.2543 78.8983L64.5974 78.8983L50.6572 64.9581L36.6497 78.8983L30.9792 78.8983Z" fill="#272A30"/>
</svg>
