<svg width="96" height="70" viewBox="0 0 96 70" fill="none" xmlns="http://www.w3.org/2000/svg">
<path id="Intersect" fill-rule="evenodd" clip-rule="evenodd" d="M14.466 5.39862e-05L35.2121 20.6466L5.30314 50.5555L1.41405 54.4446L-0.000166635 55.8588L1.41405 57.2731L9.19222 65.0512L10.6064 66.4655L12.0207 65.0512L15.9097 61.1621L45.8442 31.2277L79.1996 64.423L83.098 68.3027L84.5156 69.7135L85.9264 68.2959L93.6859 60.499L95.0967 59.0814L93.6791 57.6706L89.7806 53.7909L56.4509 20.621L77.0718 5.94594e-05L71.415 5.89648e-05L52.2048 19.2102L50.7872 20.6278L52.2082 22.0421L86.959 56.6261L89.4398 59.095L84.502 64.0567L82.0212 61.5877L47.2516 26.985L45.8374 25.5776L44.4266 26.9884L13.0813 58.3337L10.6064 60.8086L5.65669 55.8588L8.13157 53.384L39.4582 22.0574L40.8758 20.6398L39.4548 19.2256L20.1365 5.44819e-05L14.466 5.39862e-05ZM30.0599 5.53495e-05L44.4113 14.2826L45.8255 15.69L47.2364 14.2792L61.5155 5.80994e-05L55.8586 5.76049e-05L45.8187 10.0399L35.7304 5.58452e-05L30.0599 5.53495e-05Z" fill="#272A30"/>
</svg>
