<svg width="96" height="70" viewBox="0 0 96 70" fill="none" xmlns="http://www.w3.org/2000/svg">
<path id="Intersect" fill-rule="evenodd" clip-rule="evenodd" d="M14.466 -7.04895e-06L35.2121 20.6465L5.30314 50.5555L1.41405 54.4446L-0.000166635 55.8588L1.41405 57.273L9.19222 65.0512L10.6064 66.4654L12.0207 65.0512L15.9097 61.1621L45.8442 31.2276L79.1996 64.4229L83.098 68.3026L84.5156 69.7134L85.9264 68.2958L93.6859 60.499L95.0967 59.0814L93.6791 57.6706L89.7806 53.7908L56.4509 20.621L77.0718 -1.57578e-06L71.415 -2.07032e-06L52.2048 19.2102L50.7872 20.6278L52.2082 22.042L86.959 56.626L89.4398 59.095L84.502 64.0566L82.0212 61.5877L47.2516 26.985L45.8374 25.5775L44.4266 26.9884L13.0813 58.3337L10.6064 60.8085L5.65669 55.8588L8.13157 53.3839L39.4582 22.0573L40.8758 20.6397L39.4548 19.2255L20.1365 -6.55322e-06L14.466 -7.04895e-06ZM30.0599 -5.68569e-06L44.4113 14.2825L45.8255 15.6899L47.2364 14.2791L61.5155 -2.93576e-06L55.8586 -3.4303e-06L45.8187 10.0399L35.7304 -5.18996e-06L30.0599 -5.68569e-06Z" fill="#272A30"/>
</svg>
