<svg width="50" height="62" viewBox="0 0 50 62" fill="none" xmlns="http://www.w3.org/2000/svg">
<path id="Subtract" fill-rule="evenodd" clip-rule="evenodd" d="M24.906 0C11.1508 0 0 11.1508 0 24.906V62L0.0380145 62L3.70937 55.641L7.38073 62H7.45686L11.1282 55.641L14.3077 61.148L17.4872 55.641L21.1585 62H21.2347L24.906 55.641L28.0855 61.148L31.265 55.641L34.9363 62H35.0124L38.6837 55.641L42.3551 62H42.4312L46.1026 55.641L49.7739 62L49.812 62V24.906C49.812 11.1508 38.6612 0 24.906 0ZM39.2137 17.4872C39.2137 18.9505 38.0274 20.1368 36.5641 20.1368C35.1008 20.1368 33.9145 18.9505 33.9145 17.4872C33.9145 16.0239 35.1008 14.8376 36.5641 14.8376C38.0274 14.8376 39.2137 16.0239 39.2137 17.4872ZM19.0769 20.1368C20.5403 20.1368 21.7265 18.9505 21.7265 17.4872C21.7265 16.0239 20.5403 14.8376 19.0769 14.8376C17.6136 14.8376 16.4274 16.0239 16.4274 17.4872C16.4274 18.9505 17.6136 20.1368 19.0769 20.1368Z" fill="#272A30"/>
</svg>
